<?xml version="1.0" encoding="UTF-8" standalone="no"?>
<!-- Created with Inkscape (http://www.inkscape.org/) -->

<svg
   xmlns:dc="http://purl.org/dc/elements/1.1/"
   xmlns:cc="http://creativecommons.org/ns#"
   xmlns:rdf="http://www.w3.org/1999/02/22-rdf-syntax-ns#"
   xmlns:svg="http://www.w3.org/2000/svg"
   xmlns="http://www.w3.org/2000/svg"
   xmlns:xlink="http://www.w3.org/1999/xlink"
   xmlns:sodipodi="http://sodipodi.sourceforge.net/DTD/sodipodi-0.dtd"
   xmlns:inkscape="http://www.inkscape.org/namespaces/inkscape"
   width="1700.2231"
   height="1700.3229"
   id="svg2169"
   sodipodi:version="0.32"
   inkscape:version="0.92.3 (2405546, 2018-03-11)"
   version="1.0"
   sodipodi:docname="gappy-logo.svg"
   inkscape:output_extension="org.inkscape.output.svg.inkscape"
   inkscape:export-filename="/home/embray/src/gap-system/gappy/docs/images/gappy-logo.svg.png"
   inkscape:export-xdpi="16.93796"
   inkscape:export-ydpi="16.93796"
   style="enable-background:new">
  <defs
     id="defs2171">
    <linearGradient
       id="linearGradient11301"
       inkscape:collect="always">
      <stop
         id="stop11303"
         offset="0"
         style="stop-color:#ffe052;stop-opacity:1" />
      <stop
         id="stop11305"
         offset="1"
         style="stop-color:#ffc331;stop-opacity:1" />
    </linearGradient>
    <linearGradient
       gradientUnits="userSpaceOnUse"
       y2="168.1012"
       x2="147.77737"
       y1="111.92053"
       x1="89.136749"
       id="linearGradient11307"
       xlink:href="#linearGradient11301"
       inkscape:collect="always" />
    <linearGradient
       id="linearGradient9515"
       inkscape:collect="always">
      <stop
         id="stop9517"
         offset="0"
         style="stop-color:#387eb8;stop-opacity:1" />
      <stop
         id="stop9519"
         offset="1"
         style="stop-color:#366994;stop-opacity:1" />
    </linearGradient>
    <linearGradient
       gradientUnits="userSpaceOnUse"
       y2="131.85291"
       x2="110.14919"
       y1="77.070274"
       x1="55.549179"
       id="linearGradient9521"
       xlink:href="#linearGradient9515"
       inkscape:collect="always" />
    <filter
       inkscape:label="Combined Lighting"
       inkscape:menu="Bevels"
       inkscape:menu-tooltip="Basic specular bevel to use for building textures"
       style="color-interpolation-filters:sRGB"
       id="filter5140">
      <feGaussianBlur
         stdDeviation="6"
         in="SourceGraphic"
         result="result0"
         id="feGaussianBlur5122" />
      <feDiffuseLighting
         lighting-color="#ffffff"
         diffuseConstant="1"
         surfaceScale="4"
         result="result5"
         id="feDiffuseLighting5126">
        <feDistantLight
           elevation="45"
           azimuth="235"
           id="feDistantLight5124" />
      </feDiffuseLighting>
      <feComposite
         k1="1.4"
         in2="SourceGraphic"
         in="result5"
         result="fbSourceGraphic"
         operator="arithmetic"
         id="feComposite5128"
         k2="0"
         k3="0"
         k4="0" />
      <feGaussianBlur
         result="result0"
         in="fbSourceGraphic"
         stdDeviation="6"
         id="feGaussianBlur5130" />
      <feSpecularLighting
         specularExponent="25"
         specularConstant="1"
         surfaceScale="4"
         lighting-color="#ffffff"
         result="result1"
         in="result0"
         id="feSpecularLighting5134">
        <feDistantLight
           azimuth="235"
           elevation="45"
           id="feDistantLight5132" />
      </feSpecularLighting>
      <feComposite
         k3="1"
         k2="1"
         operator="arithmetic"
         in="fbSourceGraphic"
         in2="result1"
         result="result4"
         id="feComposite5136"
         k1="0"
         k4="0" />
      <feComposite
         operator="in"
         result="result2"
         in2="SourceGraphic"
         in="result4"
         id="feComposite5138" />
    </filter>
    <filter
       inkscape:label="Drop Shadow"
       inkscape:menu="Bevels"
       inkscape:menu-tooltip="Basic specular bevel to use for building textures"
       style="color-interpolation-filters:sRGB"
       id="filter1379">
      <feGaussianBlur
         stdDeviation="6"
         in="SourceGraphic"
         result="result0"
         id="feGaussianBlur1361" />
      <feDiffuseLighting
         lighting-color="#ffffff"
         diffuseConstant="1"
         surfaceScale="4"
         result="result5"
         id="feDiffuseLighting1365">
        <feDistantLight
           elevation="45"
           azimuth="235"
           id="feDistantLight1363" />
      </feDiffuseLighting>
      <feComposite
         k1="1.4"
         in2="SourceGraphic"
         in="result5"
         result="fbSourceGraphic"
         operator="arithmetic"
         id="feComposite1367"
         k2="0"
         k3="0"
         k4="0" />
      <feGaussianBlur
         result="result0"
         in="fbSourceGraphic"
         stdDeviation="6"
         id="feGaussianBlur1369" />
      <feSpecularLighting
         specularExponent="25"
         specularConstant="1"
         surfaceScale="4"
         lighting-color="#ffffff"
         result="result1"
         in="result0"
         id="feSpecularLighting1373">
        <feDistantLight
           azimuth="235"
           elevation="45"
           id="feDistantLight1371" />
      </feSpecularLighting>
      <feComposite
         k3="1"
         k2="1"
         operator="arithmetic"
         in="fbSourceGraphic"
         in2="result1"
         result="result4"
         id="feComposite1375"
         k1="0"
         k4="0" />
      <feComposite
         operator="in"
         result="fbSourceGraphic"
         in2="SourceGraphic"
         in="result4"
         id="feComposite1377" />
      <feColorMatrix
         result="fbSourceGraphicAlpha"
         in="fbSourceGraphic"
         values="0 0 0 -1 0 0 0 0 -1 0 0 0 0 -1 0 0 0 0 1 0"
         id="feColorMatrix1847" />
      <feFlood
         id="feFlood1849"
         flood-opacity="0.498039"
         flood-color="rgb(0,0,0)"
         result="flood"
         in="fbSourceGraphic" />
      <feComposite
         in2="fbSourceGraphic"
         id="feComposite1851"
         in="flood"
         operator="in"
         result="composite1" />
      <feGaussianBlur
         id="feGaussianBlur1853"
         in="composite1"
         stdDeviation="20.3"
         result="blur" />
      <feOffset
         id="feOffset1855"
         dx="0"
         dy="39.8"
         result="offset" />
      <feComposite
         in2="offset"
         id="feComposite1857"
         in="fbSourceGraphic"
         operator="over"
         result="composite2" />
    </filter>
  </defs>
  <sodipodi:namedview
     id="base"
     pagecolor="#ffffff"
     bordercolor="#666666"
     borderopacity="1.0"
     inkscape:pageopacity="0.0"
     inkscape:pageshadow="2"
     inkscape:zoom="0.24748737"
     inkscape:cx="894.8442"
     inkscape:cy="700.8858"
     inkscape:document-units="px"
     inkscape:current-layer="g2076"
     width="131.10236px"
     height="184.25197px"
     inkscape:window-width="1366"
     inkscape:window-height="708"
     inkscape:window-x="0"
     inkscape:window-y="23"
     showgrid="false"
     fit-margin-left="-0.1"
     fit-margin-top="0"
     fit-margin-right="0"
     fit-margin-bottom="0"
     inkscape:window-maximized="1"
     showguides="true"
     inkscape:guide-bbox="true">
    <sodipodi:guide
       position="852.56876,888.93425"
       orientation="1,0"
       id="guide2049"
       inkscape:locked="false" />
  </sodipodi:namedview>
  <metadata
     id="metadata2174">
    <rdf:RDF>
      <cc:Work
         rdf:about="">
        <dc:format>image/svg+xml</dc:format>
        <dc:type
           rdf:resource="http://purl.org/dc/dcmitype/StillImage" />
        <dc:title></dc:title>
      </cc:Work>
    </rdf:RDF>
  </metadata>
  <g
     inkscape:groupmode="layer"
     id="layer3"
     inkscape:label="Background"
     style="display:inline"
     transform="translate(377.02539,383.74435)">
    <rect
       style="fill:#242867;fill-opacity:1;stroke-width:0.96456707"
       id="rect3990"
       width="989.94952"
       height="989.94952"
       x="-490.29474"
       y="169.31989"
       transform="rotate(-45)" />
    <rect
       transform="rotate(-45)"
       y="169.31989"
       x="-490.29474"
       height="989.94952"
       width="989.94952"
       id="rect4005"
       style="fill:#242867;fill-opacity:1;stroke-width:0.96456707" />
  </g>
  <g
     inkscape:label="Python"
     inkscape:groupmode="layer"
     id="layer1"
     transform="translate(-356.70257,1208.1434)"
     style="display:inline">
    <g
       id="g1894"
       transform="matrix(9.2735899,0,0,9.2735899,282.90332,-1488.8457)">
      <path
         style="color:#000000;display:inline;overflow:visible;visibility:visible;opacity:1;fill:url(#linearGradient9521);fill-opacity:1;fill-rule:nonzero;stroke:none;stroke-width:1;stroke-linecap:butt;stroke-linejoin:miter;stroke-miterlimit:4;stroke-dasharray:none;stroke-dashoffset:0;stroke-opacity:1;marker:none;marker-start:none;marker-mid:none;marker-end:none"
         d="M 99.75,67.46875 C 71.718268,67.468752 73.46875,79.625 73.46875,79.625 L 73.5,92.21875 h 26.75 V 96 H 62.875 c 0,0 -17.9375,-2.034276 -17.9375,26.25 -2e-6,28.28427 15.65625,27.28125 15.65625,27.28125 h 9.34375 v -13.125 c 0,0 -0.503652,-15.65625 15.40625,-15.65625 15.9099,0 26.53125,0 26.53125,0 0,0 14.90625,0.24096 14.90625,-14.40625 0,-14.647206 0,-24.21875 0,-24.21875 0,-2e-6 2.26318,-14.65625 -27.03125,-14.65625 z M 85,75.9375 c 2.661429,-2e-6 4.8125,2.151071 4.8125,4.8125 2e-6,2.661429 -2.151071,4.8125 -4.8125,4.8125 -2.661429,2e-6 -4.8125,-2.151071 -4.8125,-4.8125 -2e-6,-2.661429 2.151071,-4.8125 4.8125,-4.8125 z"
         id="path8615"
         inkscape:connector-curvature="0" />
      <path
         id="path8620"
         d="m 100.5461,177.31485 c 28.03174,0 26.28125,-12.15625 26.28125,-12.15625 l -0.0312,-12.59375 h -26.75 v -3.78125 h 37.375 c 0,0 17.9375,2.03427 17.9375,-26.25001 10e-6,-28.284267 -15.65625,-27.281247 -15.65625,-27.281247 h -9.34375 v 13.124997 c 0,0 0.50366,15.65625 -15.40625,15.65625 -15.909902,0 -26.531252,0 -26.531252,0 0,0 -14.90625,-0.24096 -14.90625,14.40626 0,14.6472 0,24.21875 0,24.21875 0,0 -2.26318,14.65625 27.031252,14.65625 z m 14.75,-8.46875 c -2.66143,0 -4.8125,-2.15107 -4.8125,-4.8125 0,-2.66143 2.15107,-4.8125 4.8125,-4.8125 2.66143,0 4.8125,2.15107 4.8125,4.8125 1e-5,2.66143 -2.15107,4.8125 -4.8125,4.8125 z"
         style="color:#000000;display:inline;overflow:visible;visibility:visible;opacity:1;fill:url(#linearGradient11307);fill-opacity:1;fill-rule:nonzero;stroke:none;stroke-width:1;stroke-linecap:butt;stroke-linejoin:miter;stroke-miterlimit:4;stroke-dasharray:none;stroke-dashoffset:0;stroke-opacity:1;marker:none;marker-start:none;marker-mid:none;marker-end:none"
         inkscape:connector-curvature="0" />
    </g>
  </g>
  <g
     inkscape:groupmode="layer"
     id="layer4"
     inkscape:label="Border"
     style="display:inline;opacity:0.98999999"
     transform="translate(377.02539,383.74435)">
    <path
       style="fill:#f2e502;fill-opacity:1;stroke-width:0.99901587;filter:url(#filter5140)"
       d="m 473.03711,-242.05078 c -10.22476,0 -20.45041,3.91916 -28.28516,11.7539 l -668.43164,668.42969 c -15.66948,15.66949 -15.66948,40.90083 0,56.57031 l 668.43164,668.42968 c 15.66949,15.6695 40.89888,15.6695 56.56836,0 L 1169.752,494.70312 c 15.6694,-15.66948 15.6694,-40.90082 0,-56.57031 L 501.32031,-230.29688 c -7.83474,-7.83474 -18.05844,-11.7539 -28.2832,-11.7539 z m 0,108.46875 c 8.65933,0 17.3179,3.31789 23.95312,9.95312 L 1063.084,442.46484 c 13.2704,13.27046 13.2704,34.6358 0,47.90625 L 496.99023,1056.4648 c -13.27045,13.2705 -34.63774,13.2705 -47.9082,0 l -566.0918,-566.09371 c -13.27045,-13.27045 -13.27045,-34.63579 0,-47.90625 l 566.0918,-566.09375 c 6.63523,-6.63523 15.29575,-9.95312 23.95508,-9.95312 z"
       id="rect4008"
       inkscape:connector-curvature="0" />
  </g>
  <g
     inkscape:groupmode="layer"
     id="layer5"
     inkscape:label="GAP"
     transform="translate(377.02539,383.74435)"
     style="display:none">
    <text
       xml:space="preserve"
       style="font-style:normal;font-variant:normal;font-weight:normal;font-stretch:normal;font-size:666.66668701px;line-height:0.64999998;font-family:Impact;-inkscape-font-specification:Impact;text-align:center;letter-spacing:0px;word-spacing:0px;text-anchor:middle;fill:#f2e508;fill-opacity:1;stroke:none;filter:url(#filter1379)"
       x="453.79599"
       y="492.62201"
       id="text5145"
       transform="matrix(1.0794,0,0,1.0794,-9.884068,-8.9685563)"><tspan
         sodipodi:role="line"
         id="tspan5143"
         x="453.79599"
         y="492.62201"
         style="font-style:normal;font-variant:normal;font-weight:normal;font-stretch:normal;line-height:0.64999998;font-family:'Abadi MT Std';-inkscape-font-specification:'Abadi MT Std';text-align:center;text-anchor:middle;fill:#f2e508;fill-opacity:1">GAP</tspan><tspan
         sodipodi:role="line"
         x="453.79599"
         y="1004.4423"
         style="font-style:normal;font-variant:normal;font-weight:normal;font-stretch:normal;line-height:0.64999998;font-family:'Abadi MT Std';-inkscape-font-specification:'Abadi MT Std';text-align:center;text-anchor:middle;fill:#f2e508;fill-opacity:1"
         id="tspan2041">PY</tspan></text>
  </g>
  <g
     transform="translate(377.02539,383.74435)"
     inkscape:label="GAP as path"
     id="g2076"
     inkscape:groupmode="layer">
    <g
       aria-label="GAP
PY"
       transform="matrix(1.0794,0,0,1.0794,-9.884068,-8.9685563)"
       style="font-style:normal;font-variant:normal;font-weight:normal;font-stretch:normal;font-size:666.66668701px;line-height:0.64999998;font-family:Impact;-inkscape-font-specification:Impact;text-align:center;letter-spacing:0px;word-spacing:0px;text-anchor:middle;fill:#f2e508;fill-opacity:1;stroke:none;filter:url(#filter1379)"
       id="text2074">
      <path
         d="m 238.63453,57.955329 c -12.66667,-8 -44.66667,-26.666667 -96.00001,-26.666667 -120.666668,0 -172.66667,116.666668 -172.66667,234.666678 0,152.66667 64.000002,234 138,234 38.66667,0 58.00001,-24.66666 71.33334,-41.33333 l 24.66667,34 h 51.33333 V 247.95534 H 121.96785 v 82 h 34.66667 v 28.66667 c 0,30.66666 -6,50.66666 -26,50.66666 -40.666666,0 -54.666667,-76.66667 -54.666667,-138 0,-48.66667 9.333334,-146.66667 88.000007,-146.66667 32,0 49.33333,14 74.66667,34 z"
         style="font-style:normal;font-variant:normal;font-weight:normal;font-stretch:normal;line-height:0.64999998;font-family:'Abadi MT Std';-inkscape-font-specification:'Abadi MT Std';text-align:center;text-anchor:middle;fill:#f2e508;fill-opacity:1"
         id="path2078" />
      <path
         d="M 400.63453,38.621995 281.96786,492.62201 h 108.66667 l 16.66667,-90 h 86.66667 l 16,90 H 625.3012 L 505.96787,38.621995 Z M 479.3012,321.28867 h -57.33334 l 28,-158.66667 h 1.33334 z"
         style="font-style:normal;font-variant:normal;font-weight:normal;font-stretch:normal;line-height:0.64999998;font-family:'Abadi MT Std';-inkscape-font-specification:'Abadi MT Std';text-align:center;text-anchor:middle;fill:#f2e508;fill-opacity:1"
         id="path2080" />
      <path
         d="M 656.95747,38.621995 V 492.62201 H 762.95748 V 312.622 h 36 c 86.66667,0 151.33334,-47.33333 151.33334,-146 0,-76.66667 -44,-128.000005 -132.00001,-128.000005 z m 139.33334,88.666665 c 30.66667,0 48,18.00001 48,45.33334 0,34.66667 -25.33333,51.33333 -58,51.33333 h -23.33333 v -96.66667 z"
         style="font-style:normal;font-variant:normal;font-weight:normal;font-stretch:normal;line-height:0.64999998;font-family:'Abadi MT Std';-inkscape-font-specification:'Abadi MT Std';text-align:center;text-anchor:middle;fill:#f2e508;fill-opacity:1"
         id="path2082" />
      <path
         d="m 149.79598,550.44223 v 453.99997 h 106 V 824.44224 h 36.00001 c 86.66666,0 151.33333,-47.33333 151.33333,-146 0,-76.66667 -44,-128.00001 -132,-128.00001 z m 139.33334,88.66667 c 30.66667,0 48,18 48,45.33334 0,34.66667 -25.33333,51.33333 -58,51.33333 H 255.79598 V 639.1089 Z"
         style="font-style:normal;font-variant:normal;font-weight:normal;font-stretch:normal;line-height:0.64999998;font-family:'Abadi MT Std';-inkscape-font-specification:'Abadi MT Std';text-align:center;text-anchor:middle;fill:#f2e508;fill-opacity:1"
         id="path2084" />
      <path
         d="m 461.79599,550.44223 104,246.00001 V 1004.4422 H 671.796 V 796.44224 L 779.12933,550.44223 H 657.796 l -37.33334,144.00001 h -1.33333 l -38,-144.00001 z"
         style="font-style:normal;font-variant:normal;font-weight:normal;font-stretch:normal;line-height:0.64999998;font-family:'Abadi MT Std';-inkscape-font-specification:'Abadi MT Std';text-align:center;text-anchor:middle;fill:#f2e508;fill-opacity:1"
         id="path2086" />
    </g>
  </g>
</svg>
